<svg width="19" height="14" viewBox="0 0 19 14" fill="none" xmlns="http://www.w3.org/2000/svg">
<g clip-path="url(#clip0_146_5922)">
<path d="M18.9998 1.90311C18.9998 1.97083 18.9728 2.03576 18.9248 2.08355C15.4351 5.5591 11.9748 9.06443 8.48461 12.5698C8.06037 12.9959 7.63613 13.4219 7.21188 13.848C6.99976 14.0611 6.87855 14.0611 6.66643 13.848C4.51491 11.6567 2.3331 9.46542 0.151278 7.27412C-0.0608428 7.06107 -0.0608428 6.93933 0.151278 6.72629C0.636127 6.23934 1.12098 5.75238 1.60582 5.26542C1.81795 5.05238 1.93916 5.05238 2.15128 5.26542C3.69673 6.8176 5.24219 8.36977 6.78764 9.92194C6.78932 9.92363 6.79098 9.92532 6.79262 9.92701C6.86546 10.0022 6.98196 10.0169 7.07168 9.96288C7.08579 9.95439 7.0966 9.94642 7.10822 9.93475C10.3447 6.68422 13.5511 3.46389 16.7876 0.213247C17.0604 -0.0606658 17.1513 -0.0606658 17.424 0.213247C17.8786 0.669769 18.3331 1.12629 18.7876 1.58281C18.8345 1.62983 18.8994 1.69501 18.9544 1.76433C18.9856 1.80356 18.9998 1.85301 18.9998 1.90311Z" fill="#258DDC"/>
</g>
<defs>
<clipPath id="clip0_146_5922">
<rect width="19" height="14" rx="5" fill="white"/>
</clipPath>
</defs>
</svg>
