<svg width="10" height="6" viewBox="0 0 10 6" fill="none" xmlns="http://www.w3.org/2000/svg">
<path d="M4.71639 5.71451C4.79342 5.79372 4.88095 5.83333 4.97899 5.83333C5.09104 5.83333 5.20308 5.77572 5.31513 5.66049L9.78991 1.12346C9.84594 1.06584 9.89496 1.00823 9.93697 0.950617C9.97899 0.900206 10 0.853395 10 0.810185C10 0.74537 9.96499 0.676955 9.89496 0.604938L9.47479 0.17284C9.39776 0.0936215 9.32423 0.0540125 9.2542 0.0540125C9.16316 0.0540125 9.05462 0.118827 8.92857 0.248457L4.96849 4.21296L1.01891 0.194444C0.892858 0.0648145 0.784313 -4.0283e-07 0.693277 -4.0681e-07C0.623249 -4.09871e-07 0.560224 0.0288063 0.504201 0.0864194L0.115546 0.475308C0.0385151 0.554526 -2.81741e-08 0.644547 -3.25812e-08 0.74537C-3.82475e-08 0.875 0.0525207 0.983024 0.157563 1.06944L4.71639 5.71451Z" fill="#0066AE" fill-opacity="0.38"/>
</svg>
