<svg width="20" height="25" viewBox="0 0 20 25" fill="none" xmlns="http://www.w3.org/2000/svg">
<g clip-path="url(#clip0_162_8503)">
<path d="M2.7 24.6C2.5 24.5 2.3 24.5 2.1 24.4C0.9 24 0.1 22.9 0.1 21.6C0.1 21.5 0.1 21.5 0.1 21.4C0 15.3 0 9.3 0 3.2C0 1.8 0.8 0.6 2.1 0.2C2.4 0.1 2.8 0 3.1 0C6.5 0 9.9 0 13.3 0C13.7 0 13.9 0.1 14.2 0.4C16.1 2.3 17.9 4.1 19.8 6C19.9 6.1 20 6.2 20 6.4C20 11.4 20 16.3 20 21.3C20 23.2 18.7 24.4 17.4 24.5C17.4 24.5 17.4 24.5 17.3 24.5C12.4 24.6 7.6 24.6 2.7 24.6ZM12.3 1.5C12.2 1.5 12.1 1.5 12 1.5C9.1 1.5 6.2 1.5 3.2 1.5C2.1 1.5 1.5 2.1 1.5 3.2C1.5 9.2 1.5 15.3 1.5 21.3C1.5 22.4 2.1 23 3.2 23C7.7 23 12.2 23 16.7 23C17.8 23 18.4 22.4 18.4 21.3C18.4 16.8 18.4 12.3 18.4 7.9C18.4 7.8 18.4 7.7 18.4 7.6C17.4 7.6 16.4 7.6 15.4 7.6C13.6 7.6 12.3 6.3 12.3 4.5C12.3 3.6 12.3 2.7 12.3 1.8C12.3 1.7 12.3 1.7 12.3 1.5ZM18.4 6.2C16.9 4.7 15.4 3.2 13.9 1.7C13.9 2.7 13.9 3.7 13.9 4.7C13.9 5.5 14.6 6.1 15.4 6.2C16.3 6.2 17.4 6.2 18.4 6.2Z" fill="#0066AE"/>
</g>
<defs>
<clipPath id="clip0_162_8503">
<rect width="20" height="24.6" fill="white"/>
</clipPath>
</defs>
</svg>
