<svg width="22" height="22" viewBox="0 0 22 22" fill="none" xmlns="http://www.w3.org/2000/svg">
<rect x="0.75" y="0.75" width="20.5" height="20.5" rx="2.25" stroke="#0066AE" stroke-width="1.5"/>
<path d="M12.1 17.3C12.1 17.8523 11.6523 18.3 11.1 18.3H11.06C10.5077 18.3 10.06 17.8523 10.06 17.3V9.16C10.06 8.60771 10.5077 8.16 11.06 8.16H11.1C11.6523 8.16 12.1 8.60772 12.1 9.16V17.3ZM12.16 5.16C12.16 5.71228 11.7123 6.16 11.16 6.16H11C10.4477 6.16 10 5.71228 10 5.16V5C10 4.44772 10.4477 4 11 4H11.16C11.7123 4 12.16 4.44772 12.16 5V5.16Z" fill="#0066AE"/>
</svg>
