<svg width="187" height="187" viewBox="0 0 187 187" fill="none" xmlns="http://www.w3.org/2000/svg">
<circle cx="93.5" cy="93.5" r="93.5" fill="#F1F5F9"/>
<g clip-path="url(#clip0_319_2371)">
<path d="M95.6 95.1C108.4 96.5 114.4 107.2 114 115C112.8 115 111.6 115 110.2 115C109.9 109.7 107.8 105.3 103.5 102.1C100.6 100 97.3 98.9 93.6 99C86.1 99.2 78.5 104.9 77.9 115C76.7 115 75.5 115 74.3 115C72.1 107.1 81.8 96.5 92.8 95.1C89.1 94.4 86.3 92.8 84.3 89.9C82.3 87 81.7 83.8 82.4 80.4C83.6 74.8 88.9 70.7 94.5 71C100.3 71.3 105.2 75.7 106 81.1C106.8 86.6 103.9 93.2 95.6 95.1ZM94.1 91.1C98.4 91.1 102.2 87.5 102.2 83.2C102.2 78.7 98.6 75 94.1 75C89.7 75 86.1 78.6 86 82.9C86 87.4 89.6 91.1 94.1 91.1Z" fill="#0066AE" fill-opacity="0.7"/>
</g>
<defs>
<clipPath id="clip0_319_2371">
<rect width="40" height="44" fill="white" transform="translate(74 71)"/>
</clipPath>
</defs>
</svg>
