<svg width="22" height="22" viewBox="0 0 22 22" fill="none" xmlns="http://www.w3.org/2000/svg">
<path d="M11 20.9999C5.53338 20.9999 1.00005 16.4666 1.00005 10.9999C1.00005 5.53326 5.53338 0.999927 11 0.999927C16.4667 0.999927 21 5.53326 21 10.9999C21 16.4666 16.4667 20.9999 11 20.9999ZM19.2667 10.9999C19.2667 6.33326 15.5334 2.73326 10.8667 2.73326C6.33338 2.73326 2.73338 6.46659 2.73338 10.9999C2.73338 15.6666 6.46671 19.3999 11.1334 19.3999C15.6667 19.2666 19.4 15.5333 19.2667 10.9999Z" fill="#0066AE"/>
<path fill-rule="evenodd" clip-rule="evenodd" d="M19.0667 10.9999C19.0667 6.44788 15.4271 2.93326 10.8667 2.93326C6.44805 2.93326 2.93338 6.57279 2.93338 10.9999C2.93338 15.5552 6.57559 19.1983 11.1304 19.1999C15.559 19.0681 19.1967 15.4209 19.0668 11.0058L19.0667 10.9999ZM11 21.1999C5.42293 21.1999 0.800049 16.5771 0.800049 10.9999C0.800049 5.4228 5.42293 0.799927 11 0.799927C16.5772 0.799927 21.2001 5.4228 21.2001 10.9999C21.2001 16.5771 16.5772 21.1999 11 21.1999ZM1.00005 10.9999C1.00005 16.4666 5.53338 20.9999 11 20.9999C16.4667 20.9999 21 16.4666 21 10.9999C21 5.53326 16.4667 0.999927 11 0.999927C5.53338 0.999927 1.00005 5.53326 1.00005 10.9999ZM10.8667 2.73326C15.5334 2.73326 19.2667 6.33326 19.2667 10.9999C19.4 15.5333 15.6667 19.2666 11.1334 19.3999C6.46671 19.3999 2.73338 15.6666 2.73338 10.9999C2.73338 6.46659 6.33338 2.73326 10.8667 2.73326Z" fill="#0066AE"/>
<path d="M11.8 11.2C13.2667 11.2 14.6 11.2 15.9334 11.2C15.9334 11.7333 15.9334 12.2666 15.9334 12.8C14.0667 12.8 12.0667 12.8 10.0667 12.8C10.0667 10.2666 10.0667 7.86663 10.0667 5.3333C10.6 5.3333 11.1334 5.3333 11.6667 5.3333C11.8 7.3333 11.8 9.19997 11.8 11.2Z" fill="#0066AE"/>
<path fill-rule="evenodd" clip-rule="evenodd" d="M15.9334 11H16.1334V13H9.8667V12.8M10.0667 5.1333H9.8667ZM11.8663 5.32L11.6667 5.3333L11.6667 5.1333H11.8538L11.8663 5.32ZM11.8 11V11.2ZM15.9334 11.2V11.4ZM15.7334 12.8H15.9334V11.4M15.7334 12.8H10.2667ZM10.0667 12.6V12.8H10.2667M10.0667 12.6V5.3333Z" fill="#0066AE"/>
</svg>
