<svg width="19" height="14" fill="none" xmlns="http://www.w3.org/2000/svg"><g clip-path="url(#clip0_146_5922)"><path d="M19 1.903a.255.255 0 01-.075.18c-3.49 3.476-6.95 6.981-10.44 10.487l-1.273 1.278c-.212.213-.333.213-.546 0A1296.806 1296.806 0 00.151 7.274c-.212-.213-.212-.335 0-.548l1.455-1.46c.212-.214.333-.214.545 0l4.637 4.656a.227.227 0 00.32.013l9.68-9.722c.272-.274.363-.274.636 0l1.364 1.37c.046.047.111.112.166.181a.22.22 0 01.046.14z" fill="#258DDC"/></g><defs><clipPath id="clip0_146_5922"><rect width="19" height="14" rx="5" fill="#fff"/></clipPath></defs></svg>