<svg width="20" height="25" fill="none" xmlns="http://www.w3.org/2000/svg"><g clip-path="url(#clip0_162_8503)"><path d="M2.7 24.6c-.2-.1-.4-.1-.6-.2-1.2-.4-2-1.5-2-2.8v-.2C0 15.3 0 9.3 0 3.2 0 1.8.8.6 2.1.2c.3-.1.7-.2 1-.2h10.2c.4 0 .6.1.9.4L19.8 6c.1.1.2.2.2.4v14.9c0 1.9-1.3 3.1-2.6 3.2h-.1c-4.9.1-9.7.1-14.6.1zm9.6-23.1H3.2c-1.1 0-1.7.6-1.7 1.7v18.1c0 1.1.6 1.7 1.7 1.7h13.5c1.1 0 1.7-.6 1.7-1.7V7.6h-3c-1.8 0-3.1-1.3-3.1-3.1v-3zm6.1 4.7l-4.5-4.5v3c0 .8.7 1.4 1.5 1.5h3z" fill="#0066AE"/></g><defs><clipPath id="clip0_162_8503"><path fill="#fff" d="M0 0h20v24.6H0z"/></clipPath></defs></svg>