<svg width="187" height="187" fill="none" xmlns="http://www.w3.org/2000/svg"><circle cx="93.5" cy="93.5" r="93.5" fill="#F1F5F9"/><g clip-path="url(#clip0_319_2371)"><path d="M95.6 95.1c12.8 1.4 18.8 12.1 18.4 19.9h-3.8c-.3-5.3-2.4-9.7-6.7-12.9-2.9-2.1-6.2-3.2-9.9-3.1-7.5.2-15.1 5.9-15.7 16h-3.6c-2.2-7.9 7.5-18.5 18.5-19.9-3.7-.7-6.5-2.3-8.5-5.2-2-2.9-2.6-6.1-1.9-9.5 1.2-5.6 6.5-9.7 12.1-9.4 5.8.3 10.7 4.7 11.5 10.1.8 5.5-2.1 12.1-10.4 14zm-1.5-4c4.3 0 8.1-3.6 8.1-7.9 0-4.5-3.6-8.2-8.1-8.2-4.4 0-8 3.6-8.1 7.9 0 4.5 3.6 8.2 8.1 8.2z" fill="#0066AE" fill-opacity=".7"/></g><defs><clipPath id="clip0_319_2371"><path fill="#fff" transform="translate(74 71)" d="M0 0h40v44H0z"/></clipPath></defs></svg>