<svg width="22" height="22" fill="none" xmlns="http://www.w3.org/2000/svg"><path d="M11 21C5.533 21 1 16.467 1 11S5.533 1 11 1s10 4.533 10 10-4.533 10-10 10zm8.267-10c0-4.667-3.734-8.267-8.4-8.267-4.534 0-8.134 3.734-8.134 8.267 0 4.667 3.734 8.4 8.4 8.4 4.534-.133 8.267-3.867 8.134-8.4z" fill="#0066AE"/><path fill-rule="evenodd" clip-rule="evenodd" d="M19.067 11c0-4.552-3.64-8.067-8.2-8.067-4.419 0-7.934 3.64-7.934 8.067a8.165 8.165 0 008.197 8.2c4.429-.132 8.067-3.78 7.937-8.194V11zM11 21.2C5.423 21.2.8 16.577.8 11 .8 5.423 5.423.8 11 .8 16.577.8 21.2 5.423 21.2 11c0 5.577-4.623 10.2-10.2 10.2zM1 11c0 5.467 4.533 10 10 10s10-4.533 10-10S16.467 1 11 1 1 5.533 1 11zm9.867-8.267c4.666 0 8.4 3.6 8.4 8.267.133 4.533-3.6 8.267-8.134 8.4a8.365 8.365 0 01-8.4-8.4c0-4.533 3.6-8.267 8.134-8.267z" fill="#0066AE"/><path d="M11.8 11.2h4.133v1.6h-5.866V5.333h1.6c.133 2 .133 3.867.133 5.867z" fill="#0066AE"/><path fill-rule="evenodd" clip-rule="evenodd" d="M15.933 11h.2v2H9.867v-.2m.2-7.667h-.2zm1.8.187l-.2.013v-.2h.187l.012.187zM11.8 11v.2zm4.133.2v.2zm-.2 1.6h.2v-1.4m-.2 1.4h-5.466zm-5.666-.2v.2h.2m-.2-.2V5.333z" fill="#0066AE"/></svg>